<svg width="252" height="128" viewBox="0 0 252 128" fill="none" xmlns="http://www.w3.org/2000/svg">
<g clip-path="url(#clip0_2_47)">
<path d="M42.6 30.62L42.06 31.19C40.2987 32.8807 38.6137 34.6491 37.01 36.49C36.88 36.63 36.71 36.83 36.55 37.01C32.45 41.39 28.43 45.83 24.48 50.33C18.99 56.4 9.67 62.79 7.17 65.96C4.61 69.21 2.87 72.56 1.83 75.88C1.64 76.48 1.47 77.08 1.33 77.67C1.27 77.89 1.21 78.12 1.16 78.34C0.309998 82.12 0.519998 85.79 1.66 89.15C1.77 89.48 1.86 89.81 1.99 90.13C2.11 90.45 2.27 90.76 2.41 91.07C3.85 94.31 6.19 97.14 9.38 99.34C9.57 99.47 9.77 99.59 9.97 99.72C10.48 100.06 11.01 100.38 11.55 100.7C14.57 102.43 18.12 103.71 22.21 104.35C26.19 104.98 38.32 105.74 46.47 106.46C52.43 107.09 87.4 104.74 93.88 102.2C106.44 97.27 116.83 90.52 121.74 78.36C122.68 76.04 123.41 73.76 124 71.5C124.19 70.76 124.35 70.02 124.51 69.29C126.34 60.61 125.56 52.35 122.13 44.48C119.3 36.38 114.28 29.79 107.04 24.65C106.43 24.22 105.81 23.78 105.16 23.37C103.137 22.0645 101.029 20.8952 98.85 19.87C86.99 14.28 72.7 14.19 60.13 19.09C53.63 21.63 47.59 25.47 42.6 30.62V30.62Z" fill="#4A7337"/>
<path d="M112.98 44.77C112.8 44.59 112.61 44.42 112.43 44.25C110.794 42.5306 109.075 40.8919 107.28 39.34C107.14 39.22 106.94 39.05 106.77 38.9C102.52 34.92 98.2 31.01 93.81 27.17C87.91 21.83 79.74 11.32 76.65 8.89001C73.48 6.40001 70.18 4.71001 66.9 3.69001C66.3 3.50001 65.71 3.34001 65.11 3.20001C64.89 3.14001 64.66 3.08001 64.44 3.03001C60.68 2.20001 57.01 2.39001 53.62 3.48001C53.29 3.59001 52.96 3.67001 52.63 3.80001C52.31 3.92001 51.99 4.07001 51.68 4.20001C48.4 5.59001 45.5 7.85001 43.21 10.94C43.07 11.12 42.95 11.32 42.81 11.51C42.45 12 42.12 12.51 41.79 13.04C39.98 15.96 38.59 19.4 37.82 23.36C37.07 27.22 38.01 40.42 37.05 48.32C36.24 54.09 35.54 59.88 34.93 65.67C34.9 65.9 34.87 66.15 34.84 66.34C34.4974 68.6874 34.2705 71.0503 34.16 73.42C34.14 73.67 34.11 73.92 34.08 74.18C33.47 81.12 34.54 87.95 36.89 94.24C41.44 106.43 50.9 116.56 62.91 121.35C65.2 122.26 67.46 122.98 69.7 123.56C70.44 123.75 71.17 123.91 71.9 124.06C80.53 125.86 88.8 125.11 96.77 121.81C104.95 119.09 111.69 114.24 117.04 107.23C117.49 106.64 117.94 106.04 118.37 105.41C119.732 103.456 120.965 101.415 122.06 99.3C128 87.82 128.52 73.97 123.98 61.78C121.64 55.48 117.98 49.62 112.98 44.77V44.77ZM116.02 96.17C115.053 98.0255 113.97 99.819 112.78 101.54C112.41 102.08 112.02 102.59 111.63 103.11C107.38 108.69 102.23 112.54 95.91 114.9L94.4 115.43C94.4 115.43 93.34 115.86 92.92 116.02C86.59 118.38 80.18 118.83 73.3 117.4C72.67 117.27 72.04 117.13 71.41 116.97C69.32 116.43 67.37 115.8 65.45 115.03C55.51 111.07 47.23 102.41 43.28 91.86C41.18 86.24 40.37 80.5 40.87 74.78L40.95 73.99C41.07 71.57 41.28 69.41 41.59 67.32L41.71 66.39C42.3084 60.6718 43.0052 54.9643 43.8 49.27C44.61 42.66 43.75 28.57 44.51 24.66C45.09 21.68 46.12 18.98 47.58 16.63C47.82 16.24 48.07 15.86 48.34 15.49L48.59 15.13C50.21 12.95 52.12 11.42 54.35 10.47L54.78 10.28L55.27 10.1L55.72 9.96001C58.02 9.22001 60.46 9.12001 62.97 9.68001L63.43 9.80001C64 9.93001 64.43 10.06 64.86 10.19C67.5 11.01 70.05 12.38 72.44 14.25C75.96 17.01 86.45 29.69 89.24 32.22C93.58 36.01 97.88 39.9 102.12 43.87L102.84 44.51C104.43 45.89 106 47.39 107.51 48.96L108.04 49.47C112.37 53.66 115.52 58.54 117.61 64.16C121.53 74.7 120.93 86.67 116.02 96.17V96.17Z" fill="#6B8C21"/>
<path d="M107.51 48.95C106.01 47.38 104.43 45.88 102.84 44.5L102.12 43.86C97.8943 39.9026 93.6003 36.0187 89.24 32.21C86.45 29.69 75.97 17.01 72.44 14.24C70.05 12.37 67.5 11 64.86 10.18C64.43 10.05 64 9.92 63.43 9.79L62.97 9.67C60.46 9.12 58.02 9.21 55.72 9.95L55.27 10.09L54.78 10.27L54.35 10.46C52.12 11.41 50.21 12.93 48.59 15.12L48.34 15.48C48.08 15.85 47.83 16.23 47.58 16.62C46.12 18.97 45.09 21.67 44.51 24.65C43.75 28.56 44.61 42.65 43.8 49.26C43.02 54.81 42.32 60.57 41.71 66.38L41.59 67.31C41.29 69.39 41.08 71.56 40.95 73.98L40.87 74.77C40.37 80.49 41.18 86.23 43.28 91.85C47.22 102.4 55.51 111.06 65.45 115.02C67.37 115.79 69.32 116.42 71.41 116.96C72.05 117.12 72.68 117.26 73.3 117.39C80.17 118.82 86.59 118.37 92.92 116.01C93.34 115.85 94.4 115.42 94.4 115.42L95.91 114.89C102.24 112.53 107.38 108.67 111.63 103.1C112.02 102.59 112.41 102.07 112.78 101.53C114.02 99.75 115.08 97.99 116.02 96.16C120.94 86.66 121.53 74.69 117.61 64.13C115.52 58.51 112.37 53.64 108.04 49.44L107.51 48.95V48.95Z" fill="#DDD48F"/>
<path d="M100.14 72.73C103.98 83.03 98.74 94.5 88.44 98.33C78.14 102.16 66.67 96.93 62.84 86.63C59.01 76.33 65.34 56.66 72.28 54.55C79.42 52.39 96.3 62.43 100.14 72.73V72.73Z" fill="#704012"/>
<path d="M83.94 64.76C83.3 67 87.5 71.25 88.17 77.8C88.68 82.75 91.22 84.99 94.25 84.37C97.33 83.75 98.51 77.64 95.08 71.91C91.75 66.33 85 61.05 83.94 64.76V64.76Z" fill="#CDA989"/>
</g>
<g filter="url(#filter0_b_2_47)">
<path d="M129.875 49.9091H139.705L146.466 66.3864H146.807L153.568 49.9091H163.398V79H155.67V62.1818H155.443L148.966 78.7727H144.307L137.83 62.0682H137.602V79H129.875V49.9091ZM195.322 64.4545C195.322 67.6932 194.693 70.4252 193.433 72.6506C192.174 74.8665 190.474 76.5473 188.334 77.6932C186.194 78.8295 183.807 79.3977 181.175 79.3977C178.523 79.3977 176.127 78.8248 173.987 77.679C171.857 76.5237 170.161 74.8381 168.902 72.6222C167.652 70.3968 167.027 67.6742 167.027 64.4545C167.027 61.2159 167.652 58.4886 168.902 56.2727C170.161 54.0473 171.857 52.3665 173.987 51.2301C176.127 50.0843 178.523 49.5114 181.175 49.5114C183.807 49.5114 186.194 50.0843 188.334 51.2301C190.474 52.3665 192.174 54.0473 193.433 56.2727C194.693 58.4886 195.322 61.2159 195.322 64.4545ZM187.197 64.4545C187.197 62.7121 186.965 61.2443 186.501 60.0511C186.047 58.8485 185.37 57.9394 184.47 57.3239C183.58 56.6989 182.482 56.3864 181.175 56.3864C179.868 56.3864 178.765 56.6989 177.865 57.3239C176.975 57.9394 176.298 58.8485 175.834 60.0511C175.379 61.2443 175.152 62.7121 175.152 64.4545C175.152 66.197 175.379 67.6695 175.834 68.8722C176.298 70.0653 176.975 70.9744 177.865 71.5994C178.765 72.215 179.868 72.5227 181.175 72.5227C182.482 72.5227 183.58 72.215 184.47 71.5994C185.37 70.9744 186.047 70.0653 186.501 68.8722C186.965 67.6695 187.197 66.197 187.197 64.4545ZM205.095 49.9091L211.061 70.4205H211.288L217.254 49.9091H226.175L216.572 79H205.777L196.175 49.9091H205.095ZM228.977 79V49.9091H249.942V56.2727H236.874V61.2727H248.863V67.6364H236.874V72.6364H249.886V79H228.977Z" fill="#704012"/>
</g>
<defs>
<filter id="filter0_b_2_47" x="126.375" y="46.0114" width="127.067" height="36.8864" filterUnits="userSpaceOnUse" color-interpolation-filters="sRGB">
<feFlood flood-opacity="0" result="BackgroundImageFix"/>
<feGaussianBlur in="BackgroundImage" stdDeviation="1.75"/>
<feComposite in2="SourceAlpha" operator="in" result="effect1_backgroundBlur_2_47"/>
<feBlend mode="normal" in="SourceGraphic" in2="effect1_backgroundBlur_2_47" result="shape"/>
</filter>
<clipPath id="clip0_2_47">
<rect width="128" height="128" fill="white"/>
</clipPath>
</defs>
</svg>
